# xmcd
#
# Track frame offsets:
#	150
#	20151
#	37834
#	54654
#	68675
#	81377
#	97054
#	111838
#	130331
#	144157
#	162453
#
# Disc length: 2395 seconds
# Revision: 4
# Processed by: cddbd v1.5.2PL0 Copyright (c) Steve Scherf et al.
# Submitted via: dBpowerAMP V12.0
#
DISCID=9709590b
DTITLE=Suzy Bogguss - Nobody Love, Nobody Gets Hurt
DYEAR=1998
DGENRE=Country
TTITLE0=Just Enough Rope
TTITLE1=When I Run
TTITLE2=I Wish Hearts Would Break
TTITLE3=Nobody Love, Nobody Gets Hurt
TTITLE4=Family Tree
TTITLE5=Somebody To Love
TTITLE6=Moonlight And Roses
TTITLE7=Take Me Back
TTITLE8=From Where I Stand
TTITLE9=I Surrender
TTITLE10=Train Of Thought
EXTD=
EXTT0=
EXTT1=
EXTT2=
EXTT3=
EXTT4=
EXTT5=
EXTT6=
EXTT7=
EXTT8=
EXTT9=
EXTT10=
PLAYORDER=
